<svg xmlns="http://www.w3.org/2000/svg" width="51.877" height="46.335"><g stroke-linecap="round" stroke-linejoin="round"><path data-name="Контур 1759" d="M25.938 45.335c22.285 0 24.938-6.229 24.938-19.725 0-9.46-1.341-14.522-9.788-16.7a5.4 5.4 0 01-2.333-1.379c-1.126-1.15-1.948-4.684-4.665-5.753s-13.631-1.017-16.305 0-3.54 4.6-4.665 5.753a5.387 5.387 0 01-2.333 1.379C2.341 11.089 1 16.151 1 25.61c0 13.497 2.653 19.725 24.938 19.725z" fill="#c1c8d3" stroke="#c1c8d3" stroke-width="2" fill-rule="evenodd"/><path data-name="Контур 1760" d="M36.501 25.026A10.421 10.421 0 1026.086 35.09a10.245 10.245 0 0010.415-10.064z" fill="none" stroke="#f4f5f8" stroke-width="4"/></g></svg>